<?xml version="1.0" encoding="utf-8"?>
<!-- Generator: Adobe Illustrator 22.1.0, SVG Export Plug-In . SVG Version: 6.00 Build 0)  -->
<svg version="1.1" id="Layer_1" xmlns="http://www.w3.org/2000/svg" xmlns:xlink="http://www.w3.org/1999/xlink" x="0px" y="0px"
	 viewBox="0 0 164.8 71.3" style="enable-background:new 0 0 164.8 71.3;" xml:space="preserve">
<style type="text/css">
	.st0{fill:#F3F0F1;}
</style>
<g>
	<path class="st0" d="M10.2,53.3c-1,4.6-2,9.1-2.8,13.7c-0.6,3.4-2.9,4-5.5,3.3c-3.1-0.8-1.5-3.1-1.1-4.9c1.7-7.6,3.6-15.2,5.1-22.9
		c1-5.2,4.9-4.1,8.2-4.1c3.8,0,3.2,3,3.2,5.5c0,5,0,10,0,15.5c2.5-5.5,4.9-10.8,7.2-16.1c0.7-1.7,1.2-3.6,3.1-4.3
		c2.7-1,5.7-1.4,8.2,0c2.6,1.5,0.4,4,0,5.9c-1.4,7.2-3.2,14.3-4.9,21.4c-0.5,2-1,4-3.5,4.2c-2.6,0.2-4.8,0-3.8-3.7
		c1-3.6,1.7-7.4,2.6-11c-0.4-0.2-0.9-0.4-1.3-0.5c-1.8,3.9-3.5,7.8-5.4,11.7c-1.7,3.6-4.1,5.1-7.8,2.4c-0.9-5.4,0.1-10.9-0.6-16.3
		c-0.1-0.7,0.3,0-0.1-0.4C10.8,52.2,10.6,53.1,10.2,53.3z"/>
	<path class="st0" d="M81.5,60.2c-0.6,2.4-1.1,4.8-1.7,7.2c-0.7,2.8-2.8,3.6-5.4,3.1c-3.3-0.6-1.9-2.8-1.5-4.7
		c1.7-7.8,3.5-15.5,5.2-23.3c0.6-2.8,2.2-4.6,5.2-4c3.9,0.7,2,3.5,1.6,5.5c-0.6,3.2-1.3,6.3-2.3,10.7c4.6-4.4,6.9-10.7,13.9-7.9
		c0.1,0.2,0.2,0.5,0.1,0.6c-6.1,5.8-9.5,12.1-4.8,20.5c0.7,1.3,0,2.6-1.8,2.8c-2.2,0.2-4.4,0.2-5.3-2.5c-0.8-2.6-1.5-5.3-2.3-7.9
		C82.2,60.1,81.8,60.2,81.5,60.2z"/>
	<path class="st0" d="M116.4,48.7c-2.1-3.3-5.7-3-9-2.9c-4.7,0.1-7.8,2.4-8.8,7.1c-0.6,2.7-1.3,5.5-1.9,8.2c-1.4,7,1,10,8.5,10.1
		c2.8,0.2,5.7-0.5,7.8-2.8c1.2-1.4,3.3-3.4,1.6-5c-1.4-1.3-4.1-1-6,0.5c-0.3,0.2-0.4,0.5-0.6,0.8c-0.9,1.6-2.3,1.9-3.8,1.2
		c-0.9-0.4-1-1.3-0.9-2.1c0.2-1.8,1.2-3.3,3-3.5c2.3-0.3,4.6-0.1,7-0.1c1.1,0,2.5,0.2,2.8-1.4C116.4,55.5,118.4,52,116.4,48.7z
		 M110.2,53.1c-0.1,1.4-0.2,2.7-1.9,2.8c-1.6-0.1-2.9-0.9-2.9-2.3c0-1.6,1-2.9,2.7-3.1C109.8,50.4,110.3,51.6,110.2,53.1z"/>
	<path class="st0" d="M149.2,46.3c-7.4-2.2-12.3,0.4-14.4,7.8c-0.7,2.4-1.3,4.8-1.7,7.2c-1.1,7.2,1.2,9.9,8.4,9.9
		c6,0,8.4-1.7,10-7.5c0.9-3.4,1.7-6.8,2.2-10.2C154.3,50,152.8,47.4,149.2,46.3z M146.5,54c-0.9,3.3-1.6,6.7-2.3,10.1
		c-0.3,1.5-1,2.4-2.6,2.3c-1.9-0.1-1.9-1.5-1.7-3.5c0.7-2.9,1.4-6.5,2.3-10c0.4-1.5,1.3-2.9,3.2-2.2C146.9,51.2,146.9,52.5,146.5,54
		z"/>
	<path class="st0" d="M48.1,45.9c-3,0.1-6.2-0.1-8.2,2.7c-1,1.3-2.9,3.1-0.7,4.7c1.7,1.2,4.2,1.7,5.7-0.6c0.9-1.4,1.6-2.6,3.4-2.2
		c0.9,0.2,1.4,0.9,1.3,1.8c-0.1,2-1.3,2.7-3.2,3.2c-2.6,0.7-5.1,1.5-7.5,2.7c-3.9,1.9-4.3,5.7-4.4,9.4c-0.1,1.7,1,3.6,2.9,3.5
		c4.7-0.1,9.4-1.2,14.2-0.4c1.7,0.3,1.2-1.6,1.4-2.6c0.9-4.1,1.7-8.1,2.7-12.2C57.5,48.3,55.8,46,48.1,45.9z M46.9,63.6
		c-0.5,1.5-1.2,3.2-3.4,3.1C42.8,66.6,42.1,66,42,65c-0.1-1.8,0.5-3.3,2-4.3c1.1-0.6,2.2-1.3,3.5-1C48.3,61.3,47.3,62.4,46.9,63.6z"
		/>
	<path class="st0" d="M160.4,0.1c3.7-0.5,5.2,0.4,4.1,4.6c-2.5,9.3-4.5,18.7-6.5,28c-0.6,2.8-1.6,3-4.3,2.2
		c-4.9-1.4-6.4-3.6-4.7-8.8c2.2-6.9,3.7-14.1,5.1-21.2C154.7,1,156.6-0.5,160.4,0.1z"/>
	<path class="st0" d="M125.5,70.7c-5.8-0.1-7.3-2.1-6.2-7c0.7-2.9,1.4-5.8,2.2-8.7c0.4-1.6,1.1-3.2-0.6-4.5
		c-0.4-0.3-0.6-0.8-0.7-1.2c-0.2-0.8,6.6-10.6,7.4-10.7c2.6-0.3,4.9-0.2,4,3.5c0,0.2-0.2,0.4-0.1,0.5c3.8,6.7-4,10.7-3.8,16.6
		c0.1,2.6-2.5,4.9,0.9,7.8C130.6,68.6,127.3,70.5,125.5,70.7z"/>
	<path class="st0" d="M144.9,9.5c4.1-0.5,5.8,0.6,4.4,5c-1.5,4.7-2.4,9.6-3.3,14.5c-0.7,3.9-3.4,2.7-5.2,1.9c-1.8-0.8-6.1,0.9-4.8-4
		c1.1-4.1,2.2-8.3,3-12.6C139.6,10.8,141.3,8.9,144.9,9.5z"/>
	<path class="st0" d="M75.1,46.4c-0.4,3.1-0.4,6.1-4.5,6.5c-2.3,0.2-3.2,2-3.7,4.1c-0.9,3.5-1.8,7-2.7,10.6c-0.7,3-2.9,3.6-5.3,3.1
		c-3-0.6-1.8-3-1.4-4.8c1.2-5.2,2.3-10.3,3.6-15.5c1.1-4.4,3.8-5.5,7.4-2.5c1.2,1,1.5,0.5,2.2-0.1C71.9,46.8,73.2,46.1,75.1,46.4z"
		/>
	<path class="st0" d="M132.3,15.1c3.6-0.5,4.4,1.2,3.4,4.7c-0.7,2.2-1.2,4.5-1.6,6.8c-0.4,1.9-1.3,3.2-3.3,2.7
		c-2.4-0.6-6.4,1.6-6.9-2.3C122.9,19.8,126.7,14.9,132.3,15.1z"/>
	<path class="st0" d="M114.8,28c-0.7-0.7-4.1,2.3-3.9-1.8c0.2-4.1,2.7-5.4,6.4-5c1.8,0.2,4.4-0.8,4.4,2.5
		C121.6,27.7,119.4,29.3,114.8,28z"/>
</g>
</svg>
